<svg height="512" viewBox="0 0 512 512" width="512" xmlns="http://www.w3.org/2000/svg"><g id="Two_Tone" data-name="Two Tone"><path d="m400 64v-16h-288v16c0 63.959 36.794 120.9 94.051 157.507 25.158 16.086 25.158 52.9 0 68.986-57.257 36.607-94.051 93.548-94.051 157.507v16h288v-16c0-63.959-36.8-120.9-94.051-157.507-25.159-16.086-25.159-52.9 0-68.986 57.256-36.607 94.051-93.548 94.051-157.507z" fill="#bbdefb"/><path d="m144.963 448c5.4-21.734 33.272-41.734 78.325-55.754 17.742-5.521 29.46-14.328 32.712-24.246 3.252 9.918 14.97 18.725 32.711 24.246 45.053 14.02 72.927 34.02 78.325 55.754z" fill="#ff9100"/><path d="m160.1 128c13.43 25.58 34.93 48.48 63.19 66.55a72.525 72.525 0 0 1 32.71 49.81 72.525 72.525 0 0 1 32.71-49.81c28.26-18.07 49.76-40.97 63.19-66.55z" fill="#31ff38"/><path d="m424 488h-336v-23c0-9.389 7.991-17 17.85-17h301.35c9.279 0 16.8 7.163 16.8 16z" fill="#1a76d2"/><path d="m424 24h-336v23c0 9.389 7.991 17 17.85 17h301.35c9.279 0 16.8-7.163 16.8-16z" fill="#1a76d2"/><g fill="#0d47a0"><path d="m309.989 227.827c29.6-18.925 54.1-43.444 70.859-70.91 16.326-26.758 25.2-55.46 26.472-85.417h.68a23.527 23.527 0 0 0 23.5-23.5v-24a7.5 7.5 0 0 0 -7.5-7.5h-336a7.5 7.5 0 0 0 -7.5 7.5v24a23.527 23.527 0 0 0 23.5 23.5h.677c1.27 29.957 10.148 58.659 26.475 85.417 16.758 27.466 41.26 51.985 70.859 70.91a33.46 33.46 0 0 1 0 56.346c-29.6 18.925-54.1 43.444-70.859 70.91-16.328 26.761-25.207 55.465-26.474 85.425a24.524 24.524 0 0 0 -24.178 24.492v23a7.5 7.5 0 0 0 7.5 7.5h336a7.5 7.5 0 0 0 7.5-7.5v-24a23.527 23.527 0 0 0 -23.5-23.5h-.677c-1.271-29.957-10.148-58.659-26.475-85.417-16.758-27.466-41.261-51.985-70.859-70.91a33.46 33.46 0 0 1 0-56.346zm-214.489-179.827v-16.5h321v16.5a8.51 8.51 0 0 1 -8.5 8.5h-304a8.51 8.51 0 0 1 -8.5-8.5zm321 416v16.5h-321v-15.5a9.511 9.511 0 0 1 9.5-9.5h303a8.51 8.51 0 0 1 8.5 8.5zm-260.174-23.5c9.833-15.6 34.228-30.213 69.191-41.093 13.416-4.175 23.818-10.142 30.483-17.343 6.664 7.2 17.067 13.168 30.483 17.343 34.963 10.88 59.358 25.493 69.191 41.093zm123.254-184.5a48.221 48.221 0 0 0 22.328 40.812c55.136 35.25 87.731 87.288 90.392 143.688h-19.863c-8.976-22.222-37.552-41.741-81.5-55.415-14.954-4.654-25.352-11.915-27.814-19.422a7.5 7.5 0 0 0 -14.253 0c-2.462 7.507-12.859 14.768-27.813 19.422-43.946 13.675-72.528 33.193-81.5 55.415h-19.857c2.663-56.4 35.258-108.438 90.393-143.688a48.462 48.462 0 0 0 0-81.624c-55.137-35.25-87.732-87.288-90.393-143.688h272.6c-2.662 56.4-35.251 108.438-90.387 143.688a48.221 48.221 0 0 0 -22.333 40.812z"/><path d="m358.318 124.12a7.5 7.5 0 0 0 -6.418-3.62h-191.8a7.5 7.5 0 0 0 -6.641 10.986c14.123 26.9 36.873 50.892 65.791 69.383a65.309 65.309 0 0 1 29.344 44.671 7.5 7.5 0 0 0 14.812 0 65.313 65.313 0 0 1 29.344-44.672c28.917-18.49 51.667-42.482 65.79-69.382a7.5 7.5 0 0 0 -.222-7.366zm-73.648 64.11a80.5 80.5 0 0 0 -28.67 31.876 80.489 80.489 0 0 0 -28.67-31.875c-22.679-14.5-41.2-32.563-54.18-52.731h165.7c-12.98 20.168-31.501 38.229-54.18 52.73z"/><path d="m256 264.5a7.5 7.5 0 0 0 -7.5 7.5v7.987a7.5 7.5 0 1 0 15 0v-7.987a7.5 7.5 0 0 0 -7.5-7.5z"/><path d="m256 304.5a7.5 7.5 0 0 0 -7.5 7.5v7.987a7.5 7.5 0 1 0 15 0v-7.987a7.5 7.5 0 0 0 -7.5-7.5z"/></g></g></svg>