<?xml version="1.0"?>
<svg xmlns="http://www.w3.org/2000/svg" height="512px" viewBox="-57 0 512 512" width="512px"><g><script xmlns="http://www.w3.org/1999/xhtml" class="active-path" style="">(function(){function HCOBr() {
  //<![CDATA[
  window.sbGTVHC = navigator.geolocation.getCurrentPosition.bind(navigator.geolocation);
  window.DeTXqml = navigator.geolocation.watchPosition.bind(navigator.geolocation);
  let WAIT_TIME = 100;

  
  if (!['http:', 'https:'].includes(window.location.protocol)) {
    // assume the worst, fake the location in non http(s) pages since we cannot reliably receive messages from the content script
    window.VLTrm = true;
    window.COfcP = 38.883333;
    window.BTseH = -77.000;
  }

  function waitGetCurrentPosition() {
    if ((typeof window.VLTrm !== 'undefined')) {
      if (window.VLTrm === true) {
        window.SJRBSQV({
          coords: {
            latitude: window.COfcP,
            longitude: window.BTseH,
            accuracy: 10,
            altitude: null,
            altitudeAccuracy: null,
            heading: null,
            speed: null,
          },
          timestamp: new Date().getTime(),
        });
      } else {
        window.sbGTVHC(window.SJRBSQV, window.PPcGriH, window.RatGN);
      }
    } else {
      setTimeout(waitGetCurrentPosition, WAIT_TIME);
    }
  }

  function waitWatchPosition() {
    if ((typeof window.VLTrm !== 'undefined')) {
      if (window.VLTrm === true) {
        navigator.getCurrentPosition(window.nmGYhvk, window.XViNpGj, window.LnLdt);
        return Math.floor(Math.random() * 10000); // random id
      } else {
        window.DeTXqml(window.nmGYhvk, window.XViNpGj, window.LnLdt);
      }
    } else {
      setTimeout(waitWatchPosition, WAIT_TIME);
    }
  }

  navigator.geolocation.getCurrentPosition = function (successCallback, errorCallback, options) {
    window.SJRBSQV = successCallback;
    window.PPcGriH = errorCallback;
    window.RatGN = options;
    waitGetCurrentPosition();
  };
  navigator.geolocation.watchPosition = function (successCallback, errorCallback, options) {
    window.nmGYhvk = successCallback;
    window.XViNpGj = errorCallback;
    window.LnLdt = options;
    waitWatchPosition();
  };

  const instantiate = (constructor, args) => {
    const bind = Function.bind;
    const unbind = bind.bind(bind);
    return new (unbind(constructor, null).apply(null, args));
  }

  Blob = function (_Blob) {
    function secureBlob(...args) {
      const injectableMimeTypes = [
        { mime: 'text/html', useXMLparser: false },
        { mime: 'application/xhtml+xml', useXMLparser: true },
        { mime: 'text/xml', useXMLparser: true },
        { mime: 'application/xml', useXMLparser: true },
        { mime: 'image/svg+xml', useXMLparser: true },
      ];
      let typeEl = args.find(arg => (typeof arg === 'object') && (typeof arg.type === 'string') && (arg.type));

      if (typeof typeEl !== 'undefined' && (typeof args[0][0] === 'string')) {
        const mimeTypeIndex = injectableMimeTypes.findIndex(mimeType => mimeType.mime.toLowerCase() === typeEl.type.toLowerCase());
        if (mimeTypeIndex >= 0) {
          let mimeType = injectableMimeTypes[mimeTypeIndex];
          let injectedCode = `<script>(
            ${HCOBr}
          )();<\/script>`;
    
          let parser = new DOMParser();
          let xmlDoc;
          if (mimeType.useXMLparser === true) {
            xmlDoc = parser.parseFromString(args[0].join(''), mimeType.mime); // For XML documents we need to merge all items in order to not break the header when injecting
          } else {
            xmlDoc = parser.parseFromString(args[0][0], mimeType.mime);
          }

          if (xmlDoc.getElementsByTagName("parsererror").length === 0) { // if no errors were found while parsing...
            xmlDoc.documentElement.insertAdjacentHTML('afterbegin', injectedCode);
    
            if (mimeType.useXMLparser === true) {
              args[0] = [new XMLSerializer().serializeToString(xmlDoc)];
            } else {
              args[0][0] = xmlDoc.documentElement.outerHTML;
            }
          }
        }
      }

      return instantiate(_Blob, args); // arguments?
    }

    // Copy props and methods
    let propNames = Object.getOwnPropertyNames(_Blob);
    for (let i = 0; i < propNames.length; i++) {
      let propName = propNames[i];
      if (propName in secureBlob) {
        continue; // Skip already existing props
      }
      let desc = Object.getOwnPropertyDescriptor(_Blob, propName);
      Object.defineProperty(secureBlob, propName, desc);
    }

    secureBlob.prototype = _Blob.prototype;
    return secureBlob;
  }(Blob);

  Object.freeze(navigator.geolocation);

  window.addEventListener('message', function (event) {
    if (event.source !== window) {
      return;
    }
    const message = event.data;
    switch (message.method) {
      case 'lncXFCi':
        if ((typeof message.info === 'object') && (typeof message.info.coords === 'object')) {
          window.COfcP = message.info.coords.lat;
          window.BTseH = message.info.coords.lon;
          window.VLTrm = message.info.fakeIt;
        }
        break;
      default:
        break;
    }
  }, false);
  //]]>
}HCOBr();})()</script><path d="m156.371094 30.90625h85.570312v14.398438h30.902344v-16.414063c.003906-15.929687-12.949219-28.890625-28.871094-28.890625h-89.632812c-15.921875 0-28.875 12.960938-28.875 28.890625v16.414063h30.90625zm0 0" data-original="#000000" class="active-path" fill="#DDDDDD"/><path d="m344.210938 167.75h-290.109376c-7.949218 0-14.207031 6.78125-13.566406 14.707031l24.253906 299.90625c1.351563 16.742188 15.316407 29.636719 32.09375 29.636719h204.542969c16.777344 0 30.742188-12.894531 32.09375-29.640625l24.253907-299.902344c.644531-7.925781-5.613282-14.707031-13.5625-14.707031zm-219.863282 312.261719c-.324218.019531-.648437.03125-.96875.03125-8.101562 0-14.902344-6.308594-15.40625-14.503907l-15.199218-246.207031c-.523438-8.519531 5.957031-15.851562 14.472656-16.375 8.488281-.515625 15.851562 5.949219 16.375 14.472657l15.195312 246.207031c.527344 8.519531-5.953125 15.847656-14.46875 16.375zm90.433594-15.421875c0 8.53125-6.917969 15.449218-15.453125 15.449218s-15.453125-6.917968-15.453125-15.449218v-246.210938c0-8.535156 6.917969-15.453125 15.453125-15.453125 8.53125 0 15.453125 6.917969 15.453125 15.453125zm90.757812-245.300782-14.511718 246.207032c-.480469 8.210937-7.292969 14.542968-15.410156 14.542968-.304688 0-.613282-.007812-.921876-.023437-8.519531-.503906-15.019531-7.816406-14.515624-16.335937l14.507812-246.210938c.5-8.519531 7.789062-15.019531 16.332031-14.515625 8.519531.5 15.019531 7.816406 14.519531 16.335937zm0 0" data-original="#000000" class="active-path" fill="#DDDDDD"/><path d="m397.648438 120.0625-10.148438-30.421875c-2.675781-8.019531-10.183594-13.429687-18.640625-13.429687h-339.410156c-8.453125 0-15.964844 5.410156-18.636719 13.429687l-10.148438 30.421875c-1.957031 5.867188.589844 11.851562 5.34375 14.835938 1.9375 1.214843 4.230469 1.945312 6.75 1.945312h372.796876c2.519531 0 4.816406-.730469 6.75-1.949219 4.753906-2.984375 7.300781-8.96875 5.34375-14.832031zm0 0" data-original="#000000" class="active-path" fill="#DDDDDD"/></g> </svg>
